<svg id="visual" viewBox="0 0 900 600" width="900" height="600" xmlns="http://www.w3.org/2000/svg" xmlns:xlink="http://www.w3.org/1999/xlink" version="1.1"><rect x="0" y="0" width="900" height="600" fill="#141414"></rect><defs><linearGradient id="grad1_0" x1="33.3%" y1="0%" x2="100%" y2="100%"><stop offset="20%" stop-color="#333333" stop-opacity="1"></stop><stop offset="80%" stop-color="#333333" stop-opacity="1"></stop></linearGradient></defs><defs><linearGradient id="grad1_1" x1="33.3%" y1="0%" x2="100%" y2="100%"><stop offset="20%" stop-color="#333333" stop-opacity="1"></stop><stop offset="80%" stop-color="#2b2b2b" stop-opacity="1"></stop></linearGradient></defs><defs><linearGradient id="grad1_2" x1="33.3%" y1="0%" x2="100%" y2="100%"><stop offset="20%" stop-color="#232323" stop-opacity="1"></stop><stop offset="80%" stop-color="#2b2b2b" stop-opacity="1"></stop></linearGradient></defs><defs><linearGradient id="grad1_3" x1="33.3%" y1="0%" x2="100%" y2="100%"><stop offset="20%" stop-color="#232323" stop-opacity="1"></stop><stop offset="80%" stop-color="#1c1c1c" stop-opacity="1"></stop></linearGradient></defs><defs><linearGradient id="grad1_4" x1="33.3%" y1="0%" x2="100%" y2="100%"><stop offset="20%" stop-color="#141414" stop-opacity="1"></stop><stop offset="80%" stop-color="#1c1c1c" stop-opacity="1"></stop></linearGradient></defs><defs><linearGradient id="grad2_0" x1="0%" y1="0%" x2="66.7%" y2="100%"><stop offset="20%" stop-color="#333333" stop-opacity="1"></stop><stop offset="80%" stop-color="#333333" stop-opacity="1"></stop></linearGradient></defs><defs><linearGradient id="grad2_1" x1="0%" y1="0%" x2="66.7%" y2="100%"><stop offset="20%" stop-color="#2b2b2b" stop-opacity="1"></stop><stop offset="80%" stop-color="#333333" stop-opacity="1"></stop></linearGradient></defs><defs><linearGradient id="grad2_2" x1="0%" y1="0%" x2="66.7%" y2="100%"><stop offset="20%" stop-color="#2b2b2b" stop-opacity="1"></stop><stop offset="80%" stop-color="#232323" stop-opacity="1"></stop></linearGradient></defs><defs><linearGradient id="grad2_3" x1="0%" y1="0%" x2="66.7%" y2="100%"><stop offset="20%" stop-color="#1c1c1c" stop-opacity="1"></stop><stop offset="80%" stop-color="#232323" stop-opacity="1"></stop></linearGradient></defs><defs><linearGradient id="grad2_4" x1="0%" y1="0%" x2="66.7%" y2="100%"><stop offset="20%" stop-color="#1c1c1c" stop-opacity="1"></stop><stop offset="80%" stop-color="#141414" stop-opacity="1"></stop></linearGradient></defs><g transform="translate(900, 0)"><path d="M0 270.4C-21.4 260.9 -42.7 251.5 -66.3 247.3C-89.8 243.1 -115.5 244.1 -135.2 234.2C-154.9 224.2 -168.7 203.3 -185.3 185.3C-201.8 167.3 -221.2 152.2 -228.6 132C-236.1 111.8 -231.7 86.3 -236.7 63.4C-241.6 40.5 -256 20.3 -270.4 0L0 0Z" fill="#181818"></path><path d="M0 216.3C-17.1 208.8 -34.2 201.2 -53 197.8C-71.8 194.5 -92.4 195.3 -108.2 187.3C-124 179.4 -135 162.6 -148.2 148.2C-161.5 133.8 -176.9 121.8 -182.9 105.6C-188.9 89.4 -185.3 69 -189.3 50.7C-193.3 32.4 -204.8 16.2 -216.3 0L0 0Z" fill="#1f1f1f"></path><path d="M0 162.2C-12.8 156.6 -25.6 150.9 -39.8 148.4C-53.9 145.8 -69.3 146.5 -81.1 140.5C-93 134.5 -101.2 122 -111.2 111.2C-121.1 100.4 -132.7 91.3 -137.2 79.2C-141.7 67.1 -139 51.8 -142 38C-145 24.3 -153.6 12.2 -162.2 0L0 0Z" fill="#272727"></path><path d="M0 108.2C-8.5 104.4 -17.1 100.6 -26.5 98.9C-35.9 97.2 -46.2 97.7 -54.1 93.7C-62 89.7 -67.5 81.3 -74.1 74.1C-80.7 66.9 -88.5 60.9 -91.5 52.8C-94.4 44.7 -92.7 34.5 -94.7 25.4C-96.7 16.2 -102.4 8.1 -108.2 0L0 0Z" fill="#2f2f2f"></path><path d="M0 54.1C-4.3 52.2 -8.5 50.3 -13.3 49.5C-18 48.6 -23.1 48.8 -27 46.8C-31 44.8 -33.7 40.7 -37.1 37.1C-40.4 33.5 -44.2 30.4 -45.7 26.4C-47.2 22.4 -46.3 17.3 -47.3 12.7C-48.3 8.1 -51.2 4.1 -54.1 0L0 0Z" fill="#333333"></path></g><g transform="translate(0, 600)"><path d="M0 -270.4C23.2 -266.9 46.4 -263.4 69.1 -257.9C91.8 -252.4 113.9 -245 135.2 -234.2C156.5 -223.3 177 -209.1 189.5 -189.5C202 -169.9 206.4 -145 214.8 -124C223.1 -103 235.4 -85.8 245.3 -65.7C255.3 -45.7 262.8 -22.9 270.4 0L0 0Z" fill="#181818"></path><path d="M0 -216.3C18.6 -213.5 37.1 -210.7 55.3 -206.3C73.4 -201.9 91.1 -196 108.2 -187.3C125.2 -178.7 141.6 -167.3 151.6 -151.6C161.6 -135.9 165.1 -116 171.8 -99.2C178.5 -82.4 188.3 -68.6 196.3 -52.6C204.2 -36.6 210.3 -18.3 216.3 0L0 0Z" fill="#1f1f1f"></path><path d="M0 -162.2C13.9 -160.1 27.9 -158 41.5 -154.7C55.1 -151.5 68.3 -147 81.1 -140.5C93.9 -134 106.2 -125.4 113.7 -113.7C121.2 -102 123.8 -87 128.9 -74.4C133.9 -61.8 141.3 -51.5 147.2 -39.4C153.2 -27.4 157.7 -13.7 162.2 0L0 0Z" fill="#272727"></path><path d="M0 -108.2C9.3 -106.8 18.6 -105.3 27.6 -103.2C36.7 -101 45.6 -98 54.1 -93.7C62.6 -89.3 70.8 -83.6 75.8 -75.8C80.8 -68 82.6 -58 85.9 -49.6C89.3 -41.2 94.2 -34.3 98.1 -26.3C102.1 -18.3 105.1 -9.1 108.2 0L0 0Z" fill="#2f2f2f"></path><path d="M0 -54.1C4.6 -53.4 9.3 -52.7 13.8 -51.6C18.4 -50.5 22.8 -49 27 -46.8C31.3 -44.7 35.4 -41.8 37.9 -37.9C40.4 -34 41.3 -29 43 -24.8C44.6 -20.6 47.1 -17.2 49.1 -13.1C51.1 -9.1 52.6 -4.6 54.1 0L0 0Z" fill="#333333"></path></g></svg>