<svg id="visual" viewBox="0 0 540 960" width="540" height="960" xmlns="http://www.w3.org/2000/svg" xmlns:xlink="http://www.w3.org/1999/xlink" version="1.1"><rect x="0" y="0" width="540" height="960" fill="#141414"></rect><defs><linearGradient id="grad1_0" x1="0%" y1="0%" x2="100%" y2="100%"><stop offset="30%" stop-color="#333333" stop-opacity="1"></stop><stop offset="70%" stop-color="#333333" stop-opacity="1"></stop></linearGradient></defs><defs><linearGradient id="grad1_1" x1="0%" y1="0%" x2="100%" y2="100%"><stop offset="30%" stop-color="#333333" stop-opacity="1"></stop><stop offset="70%" stop-color="#282828" stop-opacity="1"></stop></linearGradient></defs><defs><linearGradient id="grad1_2" x1="0%" y1="0%" x2="100%" y2="100%"><stop offset="30%" stop-color="#1e1e1e" stop-opacity="1"></stop><stop offset="70%" stop-color="#282828" stop-opacity="1"></stop></linearGradient></defs><defs><linearGradient id="grad1_3" x1="0%" y1="0%" x2="100%" y2="100%"><stop offset="30%" stop-color="#1e1e1e" stop-opacity="1"></stop><stop offset="70%" stop-color="#141414" stop-opacity="1"></stop></linearGradient></defs><defs><linearGradient id="grad2_0" x1="0%" y1="0%" x2="100%" y2="100%"><stop offset="30%" stop-color="#333333" stop-opacity="1"></stop><stop offset="70%" stop-color="#333333" stop-opacity="1"></stop></linearGradient></defs><defs><linearGradient id="grad2_1" x1="0%" y1="0%" x2="100%" y2="100%"><stop offset="30%" stop-color="#282828" stop-opacity="1"></stop><stop offset="70%" stop-color="#333333" stop-opacity="1"></stop></linearGradient></defs><defs><linearGradient id="grad2_2" x1="0%" y1="0%" x2="100%" y2="100%"><stop offset="30%" stop-color="#282828" stop-opacity="1"></stop><stop offset="70%" stop-color="#1e1e1e" stop-opacity="1"></stop></linearGradient></defs><defs><linearGradient id="grad2_3" x1="0%" y1="0%" x2="100%" y2="100%"><stop offset="30%" stop-color="#141414" stop-opacity="1"></stop><stop offset="70%" stop-color="#1e1e1e" stop-opacity="1"></stop></linearGradient></defs><g transform="translate(540, 0)"><path d="M0 297C-23.5 286.1 -47 275.3 -72.5 270.5C-97.9 265.6 -125.3 266.9 -148.5 257.2C-171.7 247.6 -190.9 227 -204.4 204.4C-217.8 181.7 -225.7 156.9 -232.1 134C-238.5 111.1 -243.5 90.1 -254 68.1C-264.6 46.1 -280.8 23 -297 0L0 0Z" fill="#191919"></path><path d="M0 222.8C-17.6 214.6 -35.3 206.5 -54.4 202.8C-73.4 199.2 -93.9 200.1 -111.4 192.9C-128.8 185.7 -143.1 170.3 -153.3 153.3C-163.4 136.3 -169.3 117.7 -174.1 100.5C-178.9 83.3 -182.6 67.6 -190.5 51.1C-198.5 34.5 -210.6 17.3 -222.7 0L0 0Z" fill="#232323"></path><path d="M0 148.5C-11.8 143.1 -23.5 137.6 -36.2 135.2C-49 132.8 -62.6 133.4 -74.2 128.6C-85.9 123.8 -95.4 113.5 -102.2 102.2C-108.9 90.8 -112.8 78.5 -116 67C-119.2 55.5 -121.7 45 -127 34C-132.3 23 -140.4 11.5 -148.5 0L0 0Z" fill="#2e2e2e"></path><path d="M0 74.3C-5.9 71.5 -11.8 68.8 -18.1 67.6C-24.5 66.4 -31.3 66.7 -37.1 64.3C-42.9 61.9 -47.7 56.8 -51.1 51.1C-54.5 45.4 -56.4 39.2 -58 33.5C-59.6 27.8 -60.9 22.5 -63.5 17C-66.2 11.5 -70.2 5.8 -74.2 0L0 0Z" fill="#333333"></path></g><g transform="translate(0, 960)"><path d="M0 -297C25 -292.3 50.1 -287.5 75.6 -282.1C101.1 -276.6 127 -270.4 147.5 -255.5C168 -240.5 183.1 -216.7 194.5 -194.5C205.8 -172.2 213.3 -151.4 230.4 -133C247.5 -114.6 274.2 -98.6 286.9 -76.9C299.6 -55.1 298.3 -27.6 297 0L0 0Z" fill="#191919"></path><path d="M0 -222.7C18.8 -219.2 37.6 -215.6 56.7 -211.5C75.8 -207.4 95.2 -202.8 110.6 -191.6C126 -180.4 137.4 -162.6 145.8 -145.8C154.3 -129.1 159.9 -113.5 172.8 -99.8C185.6 -86 205.6 -74 215.2 -57.7C224.7 -41.3 223.7 -20.7 222.8 0L0 0Z" fill="#232323"></path><path d="M0 -148.5C12.5 -146.1 25 -143.8 37.8 -141C50.5 -138.3 63.5 -135.2 73.7 -127.7C84 -120.3 91.6 -108.4 97.2 -97.2C102.9 -86.1 106.6 -75.7 115.2 -66.5C123.7 -57.3 137.1 -49.3 143.4 -38.4C149.8 -27.6 149.1 -13.8 148.5 0L0 0Z" fill="#2e2e2e"></path><path d="M0 -74.2C6.3 -73.1 12.5 -71.9 18.9 -70.5C25.3 -69.1 31.7 -67.6 36.9 -63.9C42 -60.1 45.8 -54.2 48.6 -48.6C51.4 -43 53.3 -37.8 57.6 -33.3C61.9 -28.7 68.5 -24.7 71.7 -19.2C74.9 -13.8 74.6 -6.9 74.3 0L0 0Z" fill="#333333"></path></g></svg>